<?xml version="1.0" ?><svg height="48px" version="1.1" viewBox="0 0 48 48" width="48px" xmlns="http://www.w3.org/2000/svg" xmlns:sketch="http://www.bohemiancoding.com/sketch/ns" xmlns:xlink="http://www.w3.org/1999/xlink"><title/><defs/><g fill="none" fill-rule="evenodd" id="shadow" stroke="none" stroke-width="1"><g id="steam"><path d="M24,48 C37.2548347,48 48,37.2548347 48,24 C48,10.7451653 37.2548347,0 24,0 C10.7451653,0 0,10.7451653 0,24 C0,37.2548347 10.7451653,48 24,48 Z" fill="#424242"/><path d="M0.820569384,30.2450556 C2.91299495,38.0306477 8.82349496,44.2521917 16.421191,46.778809 L31.0588542,32.1411458 L31.0588531,29.346875 L38.2572906,22.9338539 L38.2572906,19.4671875 L35.171875,15.6989583 L31.0588531,16.3375 L21.2921875,26.3880208 L14.48125,20.4445313 L10.6210938,20.4445312 L0.820569384,30.2450556 Z" fill="#000000" fill-opacity="0.400000006"/><path d="M33.8257716,22.6028083 C32.4692406,22.6028083 31.3714051,21.440758 31.3714051,20.007896 C31.3714051,18.5750341 32.4695352,17.4132965 33.8257716,17.4132965 C35.1808293,17.4132965 36.2795487,18.5750341 36.2795487,20.007896 C36.2795487,21.440758 35.1808293,22.6028083 33.8257716,22.6028083 Z M35.457641,24.8915698 L32.1473641,27.8851822 C32.1831385,28.1241417 32.2077538,28.3669329 32.2077538,28.6159942 C32.2077538,31.1644313 30.2532923,33.2307692 27.8436103,33.2307692 C25.764759,33.2307692 24.0288821,31.6932076 23.5890872,29.6359264 L15.4069333,26.7004864 C14.760041,27.2195092 13.9562667,27.5312713 13.0819282,27.5312713 C10.955159,27.5312713 9.23076923,25.7080729 9.23076923,23.4592061 C9.23076923,21.2106876 10.955159,19.3878375 13.0819282,19.3878375 C14.9106872,19.3878375 16.4384821,20.7359036 16.8326564,22.5420334 L24.7364923,25.3778489 C25.5064615,24.5526374 26.5685333,24.0353563 27.7448205,24.0074893 L28.9286564,20.2022506 C28.9253744,20.1266613 28.9184821,20.0521171 28.9184821,19.9758312 C28.9184821,17.1003052 31.1236923,14.7692308 33.8435282,14.7692308 C36.5640205,14.7692308 38.7692308,17.1003052 38.7692308,19.9758312 C38.7692308,22.2532617 37.3838769,24.1844447 35.457641,24.8915698 L35.457641,24.8915698 Z M15.5037538,22.0648111 C15.0436103,21.1890907 14.1600821,20.5958719 13.1459282,20.5958719 C11.6562051,20.5958719 10.4490667,21.8725288 10.4490667,23.4470142 C10.4490667,25.0214997 11.6562051,26.2978082 13.1459282,26.2978082 C13.4209641,26.2978082 13.6861538,26.2539177 13.9362462,26.1727551 L12.6549333,25.7132979 C11.6224,25.1287876 11.2338051,23.7699231 11.7868308,22.6782334 C12.3401846,21.5872404 13.6254359,21.1768988 14.6573128,21.7614091 L15.5037538,22.0648111 L15.5037538,22.0648111 Z M33.8275402,23.6453396 C35.7383009,23.6453396 37.2886974,22.0077167 37.2886974,19.9876247 C37.2886974,18.5708461 36.526797,17.342486 35.4129566,16.7346133 C34.9379018,16.4753545 34.3988278,16.3289647 33.8275402,16.3289647 C31.9167796,16.3289647 30.3681641,17.9665876 30.3681641,19.9876247 C30.3681641,22.0077167 31.9167796,23.6453396 33.8275402,23.6453396 Z M30.7341128,29.0117056 C30.7341128,27.311122 29.4301538,25.9324022 27.8219487,25.9324022 C27.5961436,25.9324022 27.3782154,25.9623592 27.1675077,26.0132165 L28.7950769,26.5970301 C29.8272821,27.1822371 30.2148923,28.5407533 29.6618667,29.631398 C29.1091692,30.7237843 27.8239179,31.1337776 26.792041,30.5492673 L25.0381128,29.9198214 C25.4047179,31.1769714 26.5124103,32.0906606 27.8219487,32.0906606 C29.4301538,32.091009 30.7341128,30.7119409 30.7341128,29.0117056 L30.7341128,29.0117056 Z" fill="#FFFFFF"/></g></g></svg>